<svg width="20" height="20" viewBox="0 0 20 20" fill="none" xmlns="http://www.w3.org/2000/svg">
<path d="M11.2684 0.826665C9.0529 0.5219 6.80195 1.02903 4.93119 2.2544C3.06044 3.47978 1.69621 5.34065 1.09043 7.49339C0.484643 9.64614 0.678213 11.9454 1.63539 13.9665C2.59257 15.9877 4.24872 17.5943 6.29802 18.4896C6.2426 17.7783 6.29347 17.0628 6.44895 16.3665C6.62024 15.5896 7.64895 11.3081 7.64895 11.3081C7.4441 10.849 7.34173 10.3507 7.34895 9.84796C7.34895 8.47296 8.14246 7.44703 9.1295 7.44703C9.30682 7.44445 9.48262 7.48008 9.64494 7.55151C9.80726 7.62293 9.9523 7.72847 10.0702 7.86094C10.1881 7.99342 10.2761 8.14973 10.3282 8.31925C10.3803 8.48876 10.3952 8.66751 10.3721 8.84333C10.3721 9.67666 9.83691 10.9378 9.55728 12.1211C9.50202 12.3381 9.49851 12.5651 9.54704 12.7837C9.59557 13.0023 9.69479 13.2065 9.83668 13.3798C9.97858 13.553 10.1592 13.6905 10.364 13.7812C10.5687 13.8718 10.792 13.9131 11.0156 13.9017C12.773 13.9017 13.9508 11.6507 13.9508 8.99333C13.9508 6.95629 12.6017 5.43037 10.1147 5.43037C9.51966 5.40725 8.92615 5.5053 8.37018 5.71857C7.81421 5.93184 7.30738 6.25587 6.88047 6.67101C6.45356 7.08614 6.11548 7.5837 5.88674 8.13349C5.65801 8.68328 5.5434 9.27382 5.54987 9.86926C5.52336 10.5297 5.73645 11.1776 6.14987 11.6933C6.22712 11.751 6.28353 11.8322 6.31059 11.9247C6.33764 12.0173 6.33388 12.1161 6.29987 12.2063C6.25728 12.3767 6.14987 12.7831 6.10728 12.9322C6.09842 12.9828 6.07781 13.0305 6.04711 13.0717C6.01642 13.1128 5.97649 13.1462 5.93055 13.169C5.8846 13.1919 5.83393 13.2037 5.78261 13.2034C5.73128 13.2031 5.68074 13.1908 5.63506 13.1674C4.35357 12.6544 3.74987 11.2443 3.74987 9.63407C3.74987 6.99796 5.95728 3.84241 10.3739 3.84241C13.8888 3.84241 16.2258 6.4137 16.2258 9.1637C16.2258 12.7831 14.2101 15.5044 11.2314 15.5044C10.7862 15.5187 10.3446 15.4204 9.9474 15.2188C9.55024 15.0171 9.21034 14.7186 8.95913 14.3507C8.95913 14.3507 8.42394 16.4952 8.31839 16.9007C8.10292 17.6014 7.78497 18.2663 7.37487 18.8739C8.2295 19.1331 9.11746 19.2628 10.0101 19.2591C11.2263 19.26 12.4309 19.0211 13.5547 18.5559C14.6785 18.0907 15.6995 17.4084 16.5592 16.5481C17.4189 15.6877 18.1005 14.6663 18.5649 13.5421C19.0293 12.418 19.2674 11.2133 19.2656 9.99704C19.2645 7.76092 18.4543 5.60073 16.9847 3.91535C15.5151 2.22996 13.4854 1.13321 11.2702 0.82759L11.2684 0.826665Z" fill="white"/>
</svg>
