<svg width="21" height="19" viewBox="0 0 21 19" fill="none" xmlns="http://www.w3.org/2000/svg">
<path fill-rule="evenodd" clip-rule="evenodd" d="M2.23301 8.20986C7.4824 5.70101 10.9828 4.04701 12.7343 3.24789C17.735 0.966218 18.7741 0.569868 19.4514 0.55678C19.6003 0.553902 19.9334 0.594398 20.1491 0.786436C20.3313 0.94859 20.3814 1.16764 20.4054 1.32137C20.4294 1.47511 20.4593 1.82534 20.4355 2.09899C20.1645 5.22242 18.992 12.8022 18.3954 16.3005C18.143 17.7807 17.646 18.277 17.1648 18.3256C16.1191 18.4312 15.3251 17.5675 14.3123 16.8392C12.7274 15.6996 11.8321 14.9902 10.2937 13.8781C8.51585 12.5929 9.66836 11.8866 10.6815 10.7322C10.9467 10.4301 15.5541 5.83295 15.6432 5.41592C15.6544 5.36376 15.6647 5.16934 15.5595 5.06668C15.4542 4.96403 15.2988 4.99913 15.1866 5.02705C15.0277 5.06663 12.4959 6.90233 7.5912 10.5342C6.87255 11.0755 6.22163 11.3393 5.63842 11.3254C4.99548 11.3102 3.75872 10.9267 2.83931 10.5988C1.71163 10.1967 0.815365 9.9841 0.893409 9.30119C0.93406 8.94549 1.38059 8.58171 2.23301 8.20986Z" fill="white"/>
</svg>
