<svg width="20" height="12" viewBox="0 0 20 12" fill="none" xmlns="http://www.w3.org/2000/svg">
<path d="M18.5856 1.67105C18.7122 1.27632 18.5856 1 17.9947 1H16.0251C15.5186 1 15.2935 1.25 15.1669 1.52632C15.1669 1.52632 14.1681 3.81579 12.7472 5.28947C12.2829 5.72368 12.0859 5.85526 11.8327 5.85526C11.7061 5.85526 11.5232 5.72368 11.5232 5.32894V1.67105C11.5232 1.19737 11.3825 1 10.9605 1H7.86541C7.5559 1 7.35894 1.22368 7.35894 1.42105C7.35894 1.86842 8.06236 1.97368 8.14677 3.21052V5.92105C8.14677 6.51315 8.03423 6.61842 7.78099 6.61842C7.11978 6.61842 5.48784 4.32894 4.53118 1.69737C4.33422 1.21053 4.15133 1 3.64487 1H1.67529C1.11255 1 1 1.25 1 1.52632C1 2.01316 1.66122 4.43421 4.10913 7.63157C5.74107 9.81578 8.03423 11 10.1164 11C11.3685 11 11.5232 10.7368 11.5232 10.2895V8.63157C11.5232 8.10526 11.6358 7.99999 12.0437 7.99999C12.3392 7.99999 12.8316 8.13157 13.9993 9.1842C15.3358 10.4342 15.5608 11 16.3065 11H18.2761C18.8388 11 19.1202 10.7368 18.9513 10.2237C18.7685 9.71052 18.1354 8.96052 17.2913 8.06578C16.827 7.55263 16.1377 7.01315 15.9407 6.73684C15.6453 6.38157 15.7297 6.22368 15.9407 5.92105C15.9407 5.90789 18.3464 2.75 18.5856 1.67105Z" fill="white" stroke="white" stroke-width="0.5"/>
</svg>
